<svg xmlns="http://www.w3.org/2000/svg" width="3420" height="713" viewBox="0 0 3420 713">
<g stroke="#9aa5b1" stroke-width="1.5" fill="none">
<path d="M 3164.2 53.0 L 3164.2 75.0 L 255.4 75.0 L 255.4 97.0"/>
<path d="M 255.4 143.0 L 255.4 165.0 L 93.8 165.0 L 93.8 187.0"/>
<path d="M 255.4 143.0 L 255.4 165.0 L 901.8 165.0 L 901.8 187.0"/>
<path d="M 901.8 233.0 L 901.8 255.0 L 578.6 255.0 L 578.6 277.0"/>
<path d="M 578.6 323.0 L 578.6 345.0 L 417.0 345.0 L 417.0 367.0"/>
<path d="M 578.6 323.0 L 578.6 345.0 L 740.2 345.0 L 740.2 367.0"/>
<path d="M 901.8 233.0 L 901.8 255.0 L 1548.2 255.0 L 1548.2 277.0"/>
<path d="M 1548.2 323.0 L 1548.2 345.0 L 1225.0 345.0 L 1225.0 367.0"/>
<path d="M 1225.0 413.0 L 1225.0 435.0 L 1063.4 435.0 L 1063.4 457.0"/>
<path d="M 1225.0 413.0 L 1225.0 435.0 L 1386.6 435.0 L 1386.6 457.0"/>
<path d="M 1548.2 323.0 L 1548.2 345.0 L 2517.8 345.0 L 2517.8 367.0"/>
<path d="M 2517.8 413.0 L 2517.8 435.0 L 2194.6 435.0 L 2194.6 457.0"/>
<path d="M 2194.6 503.0 L 2194.6 525.0 L 1871.4 525.0 L 1871.4 547.0"/>
<path d="M 1871.4 593.0 L 1871.4 615.0 L 1709.8 615.0 L 1709.8 637.0"/>
<path d="M 1871.4 593.0 L 1871.4 615.0 L 2033.0 615.0 L 2033.0 637.0"/>
<path d="M 2194.6 503.0 L 2194.6 525.0 L 2356.2 525.0 L 2356.2 547.0"/>
<path d="M 2517.8 413.0 L 2517.8 435.0 L 2841.0 435.0 L 2841.0 457.0"/>
<path d="M 2841.0 503.0 L 2841.0 525.0 L 2679.4 525.0 L 2679.4 547.0"/>
<path d="M 2841.0 503.0 L 2841.0 525.0 L 3002.6 525.0 L 3002.6 547.0"/>
<path d="M 3164.2 53.0 L 3164.2 75.0 L 3325.8 75.0 L 3325.8 97.0"/>
</g>
<rect x="3100.4" y="7.0" width="127.6" height="46.0" rx="0.0" fill="#fdf3d7" stroke="#c8a24a" stroke-width="1.5"/>
<text x="3164.2" y="25.0" text-anchor="middle" font-family="sans-serif" font-size="13" font-weight="bold" fill="#222">2</text>
<text x="3164.2" y="42.0" text-anchor="middle" font-family="sans-serif" font-size="11" fill="#444">exp(a) - ln(b)</text>
<rect x="191.6" y="97.0" width="127.6" height="46.0" rx="0.0" fill="#fdf3d7" stroke="#c8a24a" stroke-width="1.5"/>
<text x="255.4" y="115.0" text-anchor="middle" font-family="sans-serif" font-size="13" font-weight="bold" fill="#222">2</text>
<text x="255.4" y="132.0" text-anchor="middle" font-family="sans-serif" font-size="11" fill="#444">exp(a) - ln(b)</text>
<rect x="67.8" y="187.0" width="52.0" height="46.0" rx="8.0" fill="#e8f3e2" stroke="#6a9c5c" stroke-width="1.5"/>
<text x="93.8" y="205.0" text-anchor="middle" font-family="sans-serif" font-size="13" font-weight="bold" fill="#222">3</text>
<text x="93.8" y="222.0" text-anchor="middle" font-family="sans-serif" font-size="11" fill="#444">1</text>
<rect x="838.0" y="187.0" width="127.6" height="46.0" rx="0.0" fill="#fdf3d7" stroke="#c8a24a" stroke-width="1.5"/>
<text x="901.8" y="205.0" text-anchor="middle" font-family="sans-serif" font-size="13" font-weight="bold" fill="#222">2</text>
<text x="901.8" y="222.0" text-anchor="middle" font-family="sans-serif" font-size="11" fill="#444">exp(a) - ln(b)</text>
<rect x="514.8" y="277.0" width="127.6" height="46.0" rx="0.0" fill="#fdf3d7" stroke="#c8a24a" stroke-width="1.5"/>
<text x="578.6" y="295.0" text-anchor="middle" font-family="sans-serif" font-size="13" font-weight="bold" fill="#222">2</text>
<text x="578.6" y="312.0" text-anchor="middle" font-family="sans-serif" font-size="11" fill="#444">exp(a) - ln(b)</text>
<rect x="391.0" y="367.0" width="52.0" height="46.0" rx="8.0" fill="#e8f3e2" stroke="#6a9c5c" stroke-width="1.5"/>
<text x="417.0" y="385.0" text-anchor="middle" font-family="sans-serif" font-size="13" font-weight="bold" fill="#222">3</text>
<text x="417.0" y="402.0" text-anchor="middle" font-family="sans-serif" font-size="11" fill="#444">1</text>
<rect x="714.2" y="367.0" width="52.0" height="46.0" rx="8.0" fill="#e8f3e2" stroke="#6a9c5c" stroke-width="1.5"/>
<text x="740.2" y="385.0" text-anchor="middle" font-family="sans-serif" font-size="13" font-weight="bold" fill="#222">3</text>
<text x="740.2" y="402.0" text-anchor="middle" font-family="sans-serif" font-size="11" fill="#444">1</text>
<rect x="1484.4" y="277.0" width="127.6" height="46.0" rx="0.0" fill="#fdf3d7" stroke="#c8a24a" stroke-width="1.5"/>
<text x="1548.2" y="295.0" text-anchor="middle" font-family="sans-serif" font-size="13" font-weight="bold" fill="#222">2</text>
<text x="1548.2" y="312.0" text-anchor="middle" font-family="sans-serif" font-size="11" fill="#444">exp(a) - ln(b)</text>
<rect x="1161.2" y="367.0" width="127.6" height="46.0" rx="0.0" fill="#fdf3d7" stroke="#c8a24a" stroke-width="1.5"/>
<text x="1225.0" y="385.0" text-anchor="middle" font-family="sans-serif" font-size="13" font-weight="bold" fill="#222">2</text>
<text x="1225.0" y="402.0" text-anchor="middle" font-family="sans-serif" font-size="11" fill="#444">exp(a) - ln(b)</text>
<rect x="1037.4" y="457.0" width="52.0" height="46.0" rx="8.0" fill="#e8f3e2" stroke="#6a9c5c" stroke-width="1.5"/>
<text x="1063.4" y="475.0" text-anchor="middle" font-family="sans-serif" font-size="13" font-weight="bold" fill="#222">3</text>
<text x="1063.4" y="492.0" text-anchor="middle" font-family="sans-serif" font-size="11" fill="#444">1</text>
<rect x="1360.6" y="457.0" width="52.0" height="46.0" rx="8.0" fill="#e8f3e2" stroke="#6a9c5c" stroke-width="1.5"/>
<text x="1386.6" y="475.0" text-anchor="middle" font-family="sans-serif" font-size="13" font-weight="bold" fill="#222">3</text>
<text x="1386.6" y="492.0" text-anchor="middle" font-family="sans-serif" font-size="11" fill="#444">1</text>
<rect x="2454.0" y="367.0" width="127.6" height="46.0" rx="0.0" fill="#fdf3d7" stroke="#c8a24a" stroke-width="1.5"/>
<text x="2517.8" y="385.0" text-anchor="middle" font-family="sans-serif" font-size="13" font-weight="bold" fill="#222">2</text>
<text x="2517.8" y="402.0" text-anchor="middle" font-family="sans-serif" font-size="11" fill="#444">exp(a) - ln(b)</text>
<rect x="2130.8" y="457.0" width="127.6" height="46.0" rx="0.0" fill="#fdf3d7" stroke="#c8a24a" stroke-width="1.5"/>
<text x="2194.6" y="475.0" text-anchor="middle" font-family="sans-serif" font-size="13" font-weight="bold" fill="#222">2</text>
<text x="2194.6" y="492.0" text-anchor="middle" font-family="sans-serif" font-size="11" fill="#444">exp(a) - ln(b)</text>
<rect x="1807.6" y="547.0" width="127.6" height="46.0" rx="0.0" fill="#fdf3d7" stroke="#c8a24a" stroke-width="1.5"/>
<text x="1871.4" y="565.0" text-anchor="middle" font-family="sans-serif" font-size="13" font-weight="bold" fill="#222">2</text>
<text x="1871.4" y="582.0" text-anchor="middle" font-family="sans-serif" font-size="11" fill="#444">exp(a) - ln(b)</text>
<rect x="1683.8" y="637.0" width="52.0" height="46.0" rx="8.0" fill="#e8f3e2" stroke="#6a9c5c" stroke-width="1.5"/>
<text x="1709.8" y="655.0" text-anchor="middle" font-family="sans-serif" font-size="13" font-weight="bold" fill="#222">3</text>
<text x="1709.8" y="672.0" text-anchor="middle" font-family="sans-serif" font-size="11" fill="#444">1</text>
<rect x="2007.0" y="637.0" width="52.0" height="46.0" rx="8.0" fill="#e8f3e2" stroke="#6a9c5c" stroke-width="1.5"/>
<text x="2033.0" y="655.0" text-anchor="middle" font-family="sans-serif" font-size="13" font-weight="bold" fill="#222">3</text>
<text x="2033.0" y="672.0" text-anchor="middle" font-family="sans-serif" font-size="11" fill="#444">1</text>
<rect x="2330.2" y="547.0" width="52.0" height="46.0" rx="8.0" fill="#e8f3e2" stroke="#6a9c5c" stroke-width="1.5"/>
<text x="2356.2" y="565.0" text-anchor="middle" font-family="sans-serif" font-size="13" font-weight="bold" fill="#222">3</text>
<text x="2356.2" y="582.0" text-anchor="middle" font-family="sans-serif" font-size="11" fill="#444">1</text>
<rect x="2777.2" y="457.0" width="127.6" height="46.0" rx="0.0" fill="#fdf3d7" stroke="#c8a24a" stroke-width="1.5"/>
<text x="2841.0" y="475.0" text-anchor="middle" font-family="sans-serif" font-size="13" font-weight="bold" fill="#222">2</text>
<text x="2841.0" y="492.0" text-anchor="middle" font-family="sans-serif" font-size="11" fill="#444">exp(a) - ln(b)</text>
<rect x="2653.4" y="547.0" width="52.0" height="46.0" rx="8.0" fill="#e8f3e2" stroke="#6a9c5c" stroke-width="1.5"/>
<text x="2679.4" y="565.0" text-anchor="middle" font-family="sans-serif" font-size="13" font-weight="bold" fill="#222">3</text>
<text x="2679.4" y="582.0" text-anchor="middle" font-family="sans-serif" font-size="11" fill="#444">1</text>
<rect x="2976.6" y="547.0" width="52.0" height="46.0" rx="8.0" fill="#e8f3e2" stroke="#6a9c5c" stroke-width="1.5"/>
<text x="3002.6" y="565.0" text-anchor="middle" font-family="sans-serif" font-size="13" font-weight="bold" fill="#222">3</text>
<text x="3002.6" y="582.0" text-anchor="middle" font-family="sans-serif" font-size="11" fill="#444">1</text>
<rect x="3299.8" y="97.0" width="52.0" height="46.0" rx="8.0" fill="#e8f3e2" stroke="#6a9c5c" stroke-width="1.5"/>
<text x="3325.8" y="115.0" text-anchor="middle" font-family="sans-serif" font-size="13" font-weight="bold" fill="#222">3</text>
<text x="3325.8" y="132.0" text-anchor="middle" font-family="sans-serif" font-size="11" fill="#444">1</text>
</svg>
